<?xml version="1.0" encoding="iso-8859-1"?>
<!-- Uploaded to: SVG Repo, www.svgrepo.com, Generator: SVG Repo Mixer Tools -->
<svg height="800px" width="800px" version="1.1" id="Capa_1" xmlns="http://www.w3.org/2000/svg" xmlns:xlink="http://www.w3.org/1999/xlink" 
	 viewBox="0 0 257.998 257.998" xml:space="preserve">
<g>
	<path id="_233962464_2_" style="fill:#030104;" d="M253.434,231.031C157.682,193.075,23.681,199.132,0,135.873V91.84
		c47.252,57.995,144.977,76.245,253.434,93.858V231.031z"/>
	<path style="fill:#030104;" d="M22.263,46.948C-65.508,122.984,215.56,175.816,242.41,176.889
		C310.064,170.446,142.829-37.028,22.263,46.948z M84.737,40.292c14.286,0,25.874,9.137,25.874,20.4
		c0,11.273-11.588,20.411-25.874,20.411c-14.293,0-25.88-9.137-25.88-20.411C58.857,49.429,70.444,40.292,84.737,40.292z"/>
	<ellipse style="fill:#030104;" cx="84.734" cy="60.697" rx="15.139" ry="11.937"/>
</g>
</svg>